<svg xmlns="http://www.w3.org/2000/svg" xmlns:xlink="http://www.w3.org/1999/xlink" id="Layer_1" x="0px" y="0px" viewBox="0 0 120 120" style="enable-background:new 0 0 120 120;" xml:space="preserve">
<style type="text/css">
	.st0{fill:#6F9ED3;}
</style>
<path class="st0" d="M94.0889893,61.2753296c0.015686-0.4238281,0.0323486-0.8474731,0.0323486-1.2750854  c0-18.8144531-15.3066406-34.121582-34.1210938-34.121582s-34.121582,15.3071289-34.121582,34.121582  c0,0.4276733,0.0166626,0.8514404,0.0323486,1.2753296c-0.0083008,0.0545044-0.0323486,0.1033936-0.0323486,0.1602173  c0,0.0731812,0.0280762,0.137085,0.041687,0.2062378c0.8598022,18.0548706,15.815979,32.4793091,34.079895,32.4793091  c18.2637939,0,33.2194824-14.4243774,34.0794067-32.4790039c0.0136719-0.0692749,0.041687-0.1332397,0.041687-0.206543  C94.1213379,61.3789062,94.09729,61.329895,94.0889893,61.2753296z M91.9136353,60.3356934H76.8862305  c0.0009155-0.1120605,0.0065918-0.2232666,0.0065918-0.3354492c0-4.4829102-0.7138672-8.8514404-1.8688965-12.8843994  c5.8983765-0.4141846,10.7438965-1.0944824,13.1819458-2.0414429c2.3684082,4.4573364,3.7162476,9.5361938,3.7162476,14.9258423  C91.9221191,60.1127319,91.9147949,60.2234497,91.9136353,60.3356934z M86.9666748,77.0504761  c-2.3692627-0.9020386-7.0021362-1.5499878-12.6394653-1.944397c1.307251-3.8890991,2.2225342-8.1509399,2.482666-12.5706787  h15.0023804C91.3928223,67.8425293,89.6724243,72.786438,86.9666748,77.0504761z M60.0002441,91.9221191  c-1.9961548,0-7.6021118-5.7407227-11.2837524-14.7927856c7.1147461-0.3455811,15.453125-0.3455811,22.5678711,0  C67.6026001,86.1813354,61.9963989,91.9221191,60.0002441,91.9221191z M47.9001465,74.9659424  c-1.3040161-3.7177734-2.2472534-7.9078979-2.5108643-12.430542h29.2224121  c-0.2636108,4.522644-1.2069092,8.7127686-2.5109863,12.430542C64.4921265,74.539856,55.5089111,74.539856,47.9001465,74.9659424z   M28.1887207,62.5354004h15.0014038c0.2601318,4.4197388,1.1754761,8.6815796,2.4827881,12.5706787  c-5.6367188,0.3943481-10.2692261,1.0421143-12.6389771,1.9440308  C30.3284302,72.7861328,28.6081543,67.8424072,28.1887207,62.5354004z M45.307373,60.0002441  c0-4.5930786,0.729126-8.8873291,1.8699951-12.744812c4.020752,0.2288818,8.4208374,0.3439331,12.822876,0.3439331  c4.4022217,0,8.8024902-0.1149902,12.8233032-0.3439331c1.1409302,3.8574829,1.8700562,8.1517334,1.8700562,12.744812  c0,0.1127319-0.0057373,0.2230835-0.0065918,0.3354492H45.3139648C45.3131104,60.2233276,45.307373,60.1129761,45.307373,60.0002441  z M60.0002441,28.0788574c2.1551514,0,8.5165405,6.6922607,12.1223145,17.0186157  c-7.6115112,0.3800049-16.6326904,0.380127-24.2442627,0.000061C51.4839478,34.7711792,57.8450928,28.0788574,60.0002441,28.0788574  z M87.1092529,43.1722412c-2.246521,0.8389893-6.9675903,1.4389038-12.7556152,1.8002319  c-2.4530029-7.336731-6.286499-13.3415527-9.7091064-16.552002C74.1168823,29.8074951,82.2476807,35.3692017,87.1092529,43.1722412z   M55.355896,28.4205322c-3.4226685,3.2104492-7.2562866,9.21521-9.7094116,16.5519409  c-5.7876587-0.3613281-10.5084229-0.9611206-12.7549438-1.8000488C37.7529907,35.3693237,45.883606,29.8075562,55.355896,28.4205322  z M31.7947998,45.0747681c2.4386597,0.9467773,7.2838745,1.6268921,13.1813354,2.0410156  c-1.1550903,4.032959-1.8689575,8.4014893-1.8689575,12.8844604c0,0.1121826,0.0056763,0.2233887,0.0065918,0.3354492H28.0873413  c-0.0011597-0.1122437-0.0084839-0.2229614-0.0084839-0.3354492C28.0788574,54.6107788,29.4265747,49.5320435,31.7947998,45.0747681  z M34.302002,78.9092407c2.288208-0.7685547,6.7348633-1.3201904,12.1410522-1.6539917  c2.4397583,6.3222046,5.843689,11.4459839,8.9140625,14.3253784C46.7492676,90.3204956,39.24823,85.6137695,34.302002,78.9092407z   M64.6433105,91.5806274c3.0703125-2.8794556,6.4741211-8.0031738,8.9138184-14.3253784  c5.4066162,0.3338013,9.8533936,0.885437,12.1416016,1.6540527C80.7523193,85.6137695,73.2511597,90.3204956,64.6433105,91.5806274z  "></path>
</svg>